# xmcd CD database file
#
# Track frame offsets:
#	150
#	21748
#	43920
#	65190
#	87062
#	107686
#	125095
#	148360
#	169364
#	188532
#	205451
#	220064
#	240404
#	260297
#	281503
#
# Disc length: 3985 seconds
#
# Revision: 0
# Processed by: cddbd v1.5PL3 Copyright (c) Steve Scherf et al.
# Submitted via: CDex 1.51
#
DISCID=ed0f8f0f
DTITLE=Mark Anthony - Libre
DYEAR=2001
DGENRE=Salsa
TTITLE0=Celos
TTITLE1=Este Loco Que Te Mira
TTITLE2=Viviendo
TTITLE3=Hasta Que Vuelvas Conmigo
TTITLE4=Barco A La Deriva
TTITLE5=De Qui Depende
TTITLE6=Yo Te Quiero
TTITLE7=Amor Aventurero
TTITLE8=Caminari
TTITLE9=Tragedia
TTITLE10=I Need To Know
TTITLE11=No Me Ames Feat. J. Lopez
TTITLE12=There You Were Feat. J. Simpson
TTITLE13=I Want To End My Lifetime Loving You Feat T. Arena
TTITLE14=I Need To Know (Club Mix)
EXTD=YEAR: 2001
EXTT0=
EXTT1=
EXTT2=
EXTT3=
EXTT4=
EXTT5=
EXTT6=
EXTT7=
EXTT8=
EXTT9=
EXTT10=
EXTT11=
EXTT12=
EXTT13=
EXTT14=
PLAYORDER=
